<?xml version="1.0" encoding="UTF-8" standalone="no"?>
<!DOCTYPE svg PUBLIC "-//W3C//DTD SVG 1.1//EN"
 "http://www.w3.org/Graphics/SVG/1.1/DTD/svg11.dtd">
<!-- Generated by graphviz version 2.47.2 (20210527.1257)
 -->
<!-- Title: snakemake_dag Pages: 1 -->
<svg width="1127pt" height="1916pt"
 viewBox="0.00 0.00 1126.50 1916.00" xmlns="http://www.w3.org/2000/svg" xmlns:xlink="http://www.w3.org/1999/xlink">
<g id="graph0" class="graph" transform="scale(1 1) rotate(0) translate(4 1912)">
<title>snakemake_dag</title>
<polygon fill="white" stroke="transparent" points="-4,4 -4,-1912 1122.5,-1912 1122.5,4 -4,4"/>
<!-- 0 -->
<g id="node1" class="node">
<title>0</title>
<path fill="none" stroke="#d85e56" stroke-width="2" d="M327,-36C327,-36 297,-36 297,-36 291,-36 285,-30 285,-24 285,-24 285,-12 285,-12 285,-6 291,0 297,0 297,0 327,0 327,0 333,0 339,-6 339,-12 339,-12 339,-24 339,-24 339,-30 333,-36 327,-36"/>
<text text-anchor="middle" x="312" y="-15.5" font-family="sans" font-size="10.00">all</text>
</g>
<!-- 1 -->
<g id="node2" class="node">
<title>1</title>
<path fill="none" stroke="#568ad8" stroke-width="2" d="M344.5,-108C344.5,-108 279.5,-108 279.5,-108 273.5,-108 267.5,-102 267.5,-96 267.5,-96 267.5,-84 267.5,-84 267.5,-78 273.5,-72 279.5,-72 279.5,-72 344.5,-72 344.5,-72 350.5,-72 356.5,-78 356.5,-84 356.5,-84 356.5,-96 356.5,-96 356.5,-102 350.5,-108 344.5,-108"/>
<text text-anchor="middle" x="312" y="-87.5" font-family="sans" font-size="10.00">norm_final_vcf</text>
</g>
<!-- 1&#45;&gt;0 -->
<g id="edge1" class="edge">
<title>1&#45;&gt;0</title>
<path fill="none" stroke="grey" stroke-width="2" d="M312,-71.7C312,-63.98 312,-54.71 312,-46.11"/>
<polygon fill="grey" stroke="grey" stroke-width="2" points="315.5,-46.1 312,-36.1 308.5,-46.1 315.5,-46.1"/>
</g>
<!-- 2 -->
<g id="node3" class="node">
<title>2</title>
<path fill="none" stroke="#bed856" stroke-width="2" d="M333.5,-180C333.5,-180 290.5,-180 290.5,-180 284.5,-180 278.5,-174 278.5,-168 278.5,-168 278.5,-156 278.5,-156 278.5,-150 284.5,-144 290.5,-144 290.5,-144 333.5,-144 333.5,-144 339.5,-144 345.5,-150 345.5,-156 345.5,-156 345.5,-168 345.5,-168 345.5,-174 339.5,-180 333.5,-180"/>
<text text-anchor="middle" x="312" y="-159.5" font-family="sans" font-size="10.00">bcf_to_vcf</text>
</g>
<!-- 2&#45;&gt;1 -->
<g id="edge2" class="edge">
<title>2&#45;&gt;1</title>
<path fill="none" stroke="grey" stroke-width="2" d="M312,-143.7C312,-135.98 312,-126.71 312,-118.11"/>
<polygon fill="grey" stroke="grey" stroke-width="2" points="315.5,-118.1 312,-108.1 308.5,-118.1 315.5,-118.1"/>
</g>
<!-- 3 -->
<g id="node4" class="node">
<title>3</title>
<path fill="none" stroke="#78d856" stroke-width="2" d="M373,-252C373,-252 251,-252 251,-252 245,-252 239,-246 239,-240 239,-240 239,-228 239,-228 239,-222 245,-216 251,-216 251,-216 373,-216 373,-216 379,-216 385,-222 385,-228 385,-228 385,-240 385,-240 385,-246 379,-252 373,-252"/>
<text text-anchor="middle" x="312" y="-231.5" font-family="sans" font-size="10.00">bcftools_concat_final_calls</text>
</g>
<!-- 3&#45;&gt;2 -->
<g id="edge3" class="edge">
<title>3&#45;&gt;2</title>
<path fill="none" stroke="grey" stroke-width="2" d="M312,-215.7C312,-207.98 312,-198.71 312,-190.11"/>
<polygon fill="grey" stroke="grey" stroke-width="2" points="315.5,-190.1 312,-180.1 308.5,-190.1 315.5,-190.1"/>
</g>
<!-- 4 -->
<g id="node5" class="node">
<title>4</title>
<path fill="none" stroke="#d8c356" stroke-width="2" d="M334.5,-396C334.5,-396 289.5,-396 289.5,-396 283.5,-396 277.5,-390 277.5,-384 277.5,-384 277.5,-372 277.5,-372 277.5,-366 283.5,-360 289.5,-360 289.5,-360 334.5,-360 334.5,-360 340.5,-360 346.5,-366 346.5,-372 346.5,-372 346.5,-384 346.5,-384 346.5,-390 340.5,-396 334.5,-396"/>
<text text-anchor="middle" x="312" y="-375.5" font-family="sans" font-size="10.00">control_fdr</text>
</g>
<!-- 4&#45;&gt;3 -->
<g id="edge4" class="edge">
<title>4&#45;&gt;3</title>
<path fill="none" stroke="grey" stroke-width="2" d="M299.27,-359.85C292.71,-349.92 285.39,-336.88 282,-324 277.92,-308.53 277.92,-303.47 282,-288 284.49,-278.54 289.1,-268.99 293.97,-260.66"/>
<polygon fill="grey" stroke="grey" stroke-width="2" points="296.95,-262.49 299.27,-252.15 291.01,-258.79 296.95,-262.49"/>
</g>
<!-- 46 -->
<g id="node47" class="node">
<title>46</title>
<path fill="none" stroke="#56d8a9" stroke-width="2" d="M420.5,-324C420.5,-324 303.5,-324 303.5,-324 297.5,-324 291.5,-318 291.5,-312 291.5,-312 291.5,-300 291.5,-300 291.5,-294 297.5,-288 303.5,-288 303.5,-288 420.5,-288 420.5,-288 426.5,-288 432.5,-294 432.5,-300 432.5,-300 432.5,-312 432.5,-312 432.5,-318 426.5,-324 420.5,-324"/>
<text text-anchor="middle" x="362" y="-303.5" font-family="sans" font-size="10.00">bcftools_index_final_calls</text>
</g>
<!-- 4&#45;&gt;46 -->
<g id="edge78" class="edge">
<title>4&#45;&gt;46</title>
<path fill="none" stroke="grey" stroke-width="2" d="M324.36,-359.7C330.23,-351.47 337.37,-341.48 343.84,-332.42"/>
<polygon fill="grey" stroke="grey" stroke-width="2" points="346.82,-334.28 349.78,-324.1 341.12,-330.21 346.82,-334.28"/>
</g>
<!-- 5 -->
<g id="node6" class="node">
<title>5</title>
<path fill="none" stroke="#d8ac56" stroke-width="2" d="M334,-468C334,-468 290,-468 290,-468 284,-468 278,-462 278,-456 278,-456 278,-444 278,-444 278,-438 284,-432 290,-432 290,-432 334,-432 334,-432 340,-432 346,-438 346,-444 346,-444 346,-456 346,-456 346,-462 340,-468 334,-468"/>
<text text-anchor="middle" x="312" y="-447.5" font-family="sans" font-size="10.00">filter_odds</text>
</g>
<!-- 5&#45;&gt;4 -->
<g id="edge6" class="edge">
<title>5&#45;&gt;4</title>
<path fill="none" stroke="grey" stroke-width="2" d="M312,-431.7C312,-423.98 312,-414.71 312,-406.11"/>
<polygon fill="grey" stroke="grey" stroke-width="2" points="315.5,-406.1 312,-396.1 308.5,-406.1 315.5,-406.1"/>
</g>
<!-- 6 -->
<g id="node7" class="node">
<title>6</title>
<path fill="none" stroke="#56d8d8" stroke-width="2" d="M350.5,-540C350.5,-540 273.5,-540 273.5,-540 267.5,-540 261.5,-534 261.5,-528 261.5,-528 261.5,-516 261.5,-516 261.5,-510 267.5,-504 273.5,-504 273.5,-504 350.5,-504 350.5,-504 356.5,-504 362.5,-510 362.5,-516 362.5,-516 362.5,-528 362.5,-528 362.5,-534 356.5,-540 350.5,-540"/>
<text text-anchor="middle" x="312" y="-519.5" font-family="sans" font-size="10.00">varlociraptor_call</text>
</g>
<!-- 6&#45;&gt;5 -->
<g id="edge7" class="edge">
<title>6&#45;&gt;5</title>
<path fill="none" stroke="grey" stroke-width="2" d="M312,-503.7C312,-495.98 312,-486.71 312,-478.11"/>
<polygon fill="grey" stroke="grey" stroke-width="2" points="315.5,-478.1 312,-468.1 308.5,-478.1 315.5,-478.1"/>
</g>
<!-- 7 -->
<g id="node8" class="node">
<title>7</title>
<path fill="none" stroke="#ced856" stroke-width="2" d="M385,-612C385,-612 239,-612 239,-612 233,-612 227,-606 227,-600 227,-600 227,-588 227,-588 227,-582 233,-576 239,-576 239,-576 385,-576 385,-576 391,-576 397,-582 397,-588 397,-588 397,-600 397,-600 397,-606 391,-612 385,-612"/>
<text text-anchor="middle" x="312" y="-591.5" font-family="sans" font-size="10.00">merge_scattered_preprocessed</text>
</g>
<!-- 7&#45;&gt;6 -->
<g id="edge8" class="edge">
<title>7&#45;&gt;6</title>
<path fill="none" stroke="grey" stroke-width="2" d="M312,-575.7C312,-567.98 312,-558.71 312,-550.11"/>
<polygon fill="grey" stroke="grey" stroke-width="2" points="315.5,-550.1 312,-540.1 308.5,-550.1 315.5,-550.1"/>
</g>
<!-- 8 -->
<g id="node9" class="node">
<title>8</title>
<path fill="none" stroke="#8fd856" stroke-width="2" d="M378.5,-684C378.5,-684 245.5,-684 245.5,-684 239.5,-684 233.5,-678 233.5,-672 233.5,-672 233.5,-660 233.5,-660 233.5,-654 239.5,-648 245.5,-648 245.5,-648 378.5,-648 378.5,-648 384.5,-648 390.5,-654 390.5,-660 390.5,-660 390.5,-672 390.5,-672 390.5,-678 384.5,-684 378.5,-684"/>
<text text-anchor="middle" x="312" y="-663.5" font-family="sans" font-size="10.00">sort_scattered_preprocessed</text>
</g>
<!-- 8&#45;&gt;7 -->
<g id="edge9" class="edge">
<title>8&#45;&gt;7</title>
<path fill="none" stroke="grey" stroke-width="2" d="M312,-647.7C312,-639.98 312,-630.71 312,-622.11"/>
<polygon fill="grey" stroke="grey" stroke-width="2" points="315.5,-622.1 312,-612.1 308.5,-622.1 315.5,-622.1"/>
</g>
<!-- 9 -->
<g id="node10" class="node">
<title>9</title>
<path fill="none" stroke="#56c1d8" stroke-width="2" d="M368.5,-756C368.5,-756 255.5,-756 255.5,-756 249.5,-756 243.5,-750 243.5,-744 243.5,-744 243.5,-732 243.5,-732 243.5,-726 249.5,-720 255.5,-720 255.5,-720 368.5,-720 368.5,-720 374.5,-720 380.5,-726 380.5,-732 380.5,-732 380.5,-744 380.5,-744 380.5,-750 374.5,-756 368.5,-756"/>
<text text-anchor="middle" x="312" y="-735.5" font-family="sans" font-size="10.00">varlociraptor_preprocess</text>
</g>
<!-- 9&#45;&gt;8 -->
<g id="edge10" class="edge">
<title>9&#45;&gt;8</title>
<path fill="none" stroke="grey" stroke-width="2" d="M312,-719.7C312,-711.98 312,-702.71 312,-694.11"/>
<polygon fill="grey" stroke="grey" stroke-width="2" points="315.5,-694.1 312,-684.1 308.5,-694.1 315.5,-694.1"/>
</g>
<!-- 10 -->
<g id="node11" class="node">
<title>10</title>
<path fill="none" stroke="#5682d8" stroke-width="2" d="M684.5,-1908C684.5,-1908 631.5,-1908 631.5,-1908 625.5,-1908 619.5,-1902 619.5,-1896 619.5,-1896 619.5,-1884 619.5,-1884 619.5,-1878 625.5,-1872 631.5,-1872 631.5,-1872 684.5,-1872 684.5,-1872 690.5,-1872 696.5,-1878 696.5,-1884 696.5,-1884 696.5,-1896 696.5,-1896 696.5,-1902 690.5,-1908 684.5,-1908"/>
<text text-anchor="middle" x="658" y="-1887.5" font-family="sans" font-size="10.00">get_genome</text>
</g>
<!-- 10&#45;&gt;9 -->
<g id="edge14" class="edge">
<title>10&#45;&gt;9</title>
<path fill="none" stroke="grey" stroke-width="2" d="M696.64,-1888.75C744.06,-1886.57 824.84,-1876.57 879,-1836 915.49,-1808.67 930,-1792.59 930,-1747 930,-1747 930,-1747 930,-881 930,-771.62 557.64,-746.49 390.99,-740.72"/>
<polygon fill="grey" stroke="grey" stroke-width="2" points="390.91,-737.21 380.8,-740.38 390.67,-744.21 390.91,-737.21"/>
</g>
<!-- 11 -->
<g id="node12" class="node">
<title>11</title>
<path fill="none" stroke="#56b9d8" stroke-width="2" d="M221,-1692C221,-1692 159,-1692 159,-1692 153,-1692 147,-1686 147,-1680 147,-1680 147,-1668 147,-1668 147,-1662 153,-1656 159,-1656 159,-1656 221,-1656 221,-1656 227,-1656 233,-1662 233,-1668 233,-1668 233,-1680 233,-1680 233,-1686 227,-1692 221,-1692"/>
<text text-anchor="middle" x="190" y="-1671.5" font-family="sans" font-size="10.00">genome_faidx</text>
</g>
<!-- 10&#45;&gt;11 -->
<g id="edge16" class="edge">
<title>10&#45;&gt;11</title>
<path fill="none" stroke="grey" stroke-width="2" d="M619.5,-1884.23C573.44,-1877.58 494.68,-1863.15 432,-1836 347.82,-1799.54 261.17,-1733.68 218,-1698.56"/>
<polygon fill="grey" stroke="grey" stroke-width="2" points="220.16,-1695.8 210.21,-1692.16 215.72,-1701.21 220.16,-1695.8"/>
</g>
<!-- 17 -->
<g id="node18" class="node">
<title>17</title>
<path fill="none" stroke="#d88d56" stroke-width="2" d="M678,-1260C678,-1260 626,-1260 626,-1260 620,-1260 614,-1254 614,-1248 614,-1248 614,-1236 614,-1236 614,-1230 620,-1224 626,-1224 626,-1224 678,-1224 678,-1224 684,-1224 690,-1230 690,-1236 690,-1236 690,-1248 690,-1248 690,-1254 684,-1260 678,-1260"/>
<text text-anchor="middle" x="652" y="-1239.5" font-family="sans" font-size="10.00">gatk_calling</text>
</g>
<!-- 10&#45;&gt;17 -->
<g id="edge29" class="edge">
<title>10&#45;&gt;17</title>
<path fill="none" stroke="grey" stroke-width="2" d="M696.5,-1885.78C732.71,-1880.8 786.25,-1868.14 820,-1836 850.66,-1806.8 854,-1789.34 854,-1747 854,-1747 854,-1747 854,-1385 854,-1310.23 760.24,-1271.43 700.48,-1254.29"/>
<polygon fill="grey" stroke="grey" stroke-width="2" points="701.04,-1250.82 690.47,-1251.53 699.18,-1257.57 701.04,-1250.82"/>
</g>
<!-- 18 -->
<g id="node19" class="node">
<title>18</title>
<path fill="none" stroke="#56c9d8" stroke-width="2" d="M575,-1332C575,-1332 529,-1332 529,-1332 523,-1332 517,-1326 517,-1320 517,-1320 517,-1308 517,-1308 517,-1302 523,-1296 529,-1296 529,-1296 575,-1296 575,-1296 581,-1296 587,-1302 587,-1308 587,-1308 587,-1320 587,-1320 587,-1326 581,-1332 575,-1332"/>
<text text-anchor="middle" x="552" y="-1311.5" font-family="sans" font-size="10.00">apply_bqsr</text>
</g>
<!-- 10&#45;&gt;18 -->
<g id="edge35" class="edge">
<title>10&#45;&gt;18</title>
<path fill="none" stroke="grey" stroke-width="2" d="M696.75,-1884.19C728.07,-1878.23 770.92,-1865.03 796,-1836 822.51,-1805.32 816,-1787.54 816,-1747 816,-1747 816,-1747 816,-1457 816,-1358.83 672.67,-1328.24 597.23,-1318.93"/>
<polygon fill="grey" stroke="grey" stroke-width="2" points="597.39,-1315.43 587.06,-1317.75 596.59,-1322.38 597.39,-1315.43"/>
</g>
<!-- 22 -->
<g id="node23" class="node">
<title>22</title>
<path fill="none" stroke="#56d87b" stroke-width="2" d="M680.5,-1836C680.5,-1836 635.5,-1836 635.5,-1836 629.5,-1836 623.5,-1830 623.5,-1824 623.5,-1824 623.5,-1812 623.5,-1812 623.5,-1806 629.5,-1800 635.5,-1800 635.5,-1800 680.5,-1800 680.5,-1800 686.5,-1800 692.5,-1806 692.5,-1812 692.5,-1812 692.5,-1824 692.5,-1824 692.5,-1830 686.5,-1836 680.5,-1836"/>
<text text-anchor="middle" x="658" y="-1815.5" font-family="sans" font-size="10.00">bwa_index</text>
</g>
<!-- 10&#45;&gt;22 -->
<g id="edge41" class="edge">
<title>10&#45;&gt;22</title>
<path fill="none" stroke="grey" stroke-width="2" d="M658,-1871.7C658,-1863.98 658,-1854.71 658,-1846.11"/>
<polygon fill="grey" stroke="grey" stroke-width="2" points="661.5,-1846.1 658,-1836.1 654.5,-1846.1 661.5,-1846.1"/>
</g>
<!-- 24 -->
<g id="node25" class="node">
<title>24</title>
<path fill="none" stroke="#d89556" stroke-width="2" d="M580,-1476C580,-1476 524,-1476 524,-1476 518,-1476 512,-1470 512,-1464 512,-1464 512,-1452 512,-1452 512,-1446 518,-1440 524,-1440 524,-1440 580,-1440 580,-1440 586,-1440 592,-1446 592,-1452 592,-1452 592,-1464 592,-1464 592,-1470 586,-1476 580,-1476"/>
<text text-anchor="middle" x="552" y="-1455.5" font-family="sans" font-size="10.00">genome_dict</text>
</g>
<!-- 10&#45;&gt;24 -->
<g id="edge43" class="edge">
<title>10&#45;&gt;24</title>
<path fill="none" stroke="grey" stroke-width="2" d="M639.36,-1871.69C614.61,-1846.72 574,-1797.98 574,-1747 574,-1747 574,-1747 574,-1601 574,-1560.74 565.26,-1514.81 558.79,-1486.36"/>
<polygon fill="grey" stroke="grey" stroke-width="2" points="562.14,-1485.29 556.45,-1476.35 555.32,-1486.89 562.14,-1485.29"/>
</g>
<!-- 25 -->
<g id="node26" class="node">
<title>25</title>
<path fill="none" stroke="#70d856" stroke-width="2" d="M508.5,-1404C508.5,-1404 387.5,-1404 387.5,-1404 381.5,-1404 375.5,-1398 375.5,-1392 375.5,-1392 375.5,-1380 375.5,-1380 375.5,-1374 381.5,-1368 387.5,-1368 387.5,-1368 508.5,-1368 508.5,-1368 514.5,-1368 520.5,-1374 520.5,-1380 520.5,-1380 520.5,-1392 520.5,-1392 520.5,-1398 514.5,-1404 508.5,-1404"/>
<text text-anchor="middle" x="448" y="-1383.5" font-family="sans" font-size="10.00">recalibrate_base_qualities</text>
</g>
<!-- 10&#45;&gt;25 -->
<g id="edge49" class="edge">
<title>10&#45;&gt;25</title>
<path fill="none" stroke="grey" stroke-width="2" d="M619.12,-1881.44C557.91,-1867.02 446,-1829.4 446,-1747 446,-1747 446,-1747 446,-1529 446,-1488.99 446.8,-1442.65 447.39,-1414.08"/>
<polygon fill="grey" stroke="grey" stroke-width="2" points="450.89,-1414.12 447.6,-1404.05 443.89,-1413.97 450.89,-1414.12"/>
</g>
<!-- 33 -->
<g id="node34" class="node">
<title>33</title>
<path fill="none" stroke="#56d882" stroke-width="2" d="M1043.5,-1836C1043.5,-1836 970.5,-1836 970.5,-1836 964.5,-1836 958.5,-1830 958.5,-1824 958.5,-1824 958.5,-1812 958.5,-1812 958.5,-1806 964.5,-1800 970.5,-1800 970.5,-1800 1043.5,-1800 1043.5,-1800 1049.5,-1800 1055.5,-1806 1055.5,-1812 1055.5,-1812 1055.5,-1824 1055.5,-1824 1055.5,-1830 1049.5,-1836 1043.5,-1836"/>
<text text-anchor="middle" x="1007" y="-1815.5" font-family="sans" font-size="10.00">novoalign_index</text>
</g>
<!-- 10&#45;&gt;33 -->
<g id="edge59" class="edge">
<title>10&#45;&gt;33</title>
<path fill="none" stroke="grey" stroke-width="2" d="M696.6,-1882.86C751.73,-1873.86 856.1,-1855.97 944,-1836 945.45,-1835.67 946.92,-1835.33 948.4,-1834.98"/>
<polygon fill="grey" stroke="grey" stroke-width="2" points="949.38,-1838.34 958.26,-1832.57 947.71,-1831.54 949.38,-1838.34"/>
</g>
<!-- 35 -->
<g id="node36" class="node">
<title>35</title>
<path fill="none" stroke="#afd856" stroke-width="2" d="M866,-1260C866,-1260 772,-1260 772,-1260 766,-1260 760,-1254 760,-1248 760,-1248 760,-1236 760,-1236 760,-1230 766,-1224 772,-1224 772,-1224 866,-1224 866,-1224 872,-1224 878,-1230 878,-1236 878,-1236 878,-1248 878,-1248 878,-1254 872,-1260 866,-1260"/>
<text text-anchor="middle" x="819" y="-1239.5" font-family="sans" font-size="10.00">deep_variant_calling</text>
</g>
<!-- 10&#45;&gt;35 -->
<g id="edge62" class="edge">
<title>10&#45;&gt;35</title>
<path fill="none" stroke="grey" stroke-width="2" d="M696.84,-1887.3C738.54,-1883.57 804.62,-1871.94 848,-1836 881.98,-1807.85 892,-1791.13 892,-1747 892,-1747 892,-1747 892,-1385 892,-1340.03 862.69,-1295.04 841.21,-1268.1"/>
<polygon fill="grey" stroke="grey" stroke-width="2" points="843.89,-1265.85 834.84,-1260.35 838.48,-1270.29 843.89,-1265.85"/>
</g>
<!-- 37 -->
<g id="node38" class="node">
<title>37</title>
<path fill="none" stroke="#56d89a" stroke-width="2" d="M115.5,-1260C115.5,-1260 74.5,-1260 74.5,-1260 68.5,-1260 62.5,-1254 62.5,-1248 62.5,-1248 62.5,-1236 62.5,-1236 62.5,-1230 68.5,-1224 74.5,-1224 74.5,-1224 115.5,-1224 115.5,-1224 121.5,-1224 127.5,-1230 127.5,-1236 127.5,-1236 127.5,-1248 127.5,-1248 127.5,-1254 121.5,-1260 115.5,-1260"/>
<text text-anchor="middle" x="95" y="-1239.5" font-family="sans" font-size="10.00">freebayes</text>
</g>
<!-- 10&#45;&gt;37 -->
<g id="edge67" class="edge">
<title>10&#45;&gt;37</title>
<path fill="none" stroke="grey" stroke-width="2" d="M619.27,-1889.19C505.12,-1889.16 172.06,-1884.8 77,-1836 30.47,-1812.11 0,-1799.3 0,-1747 0,-1747 0,-1747 0,-1457 0,-1383.31 47.64,-1306.67 75.45,-1268.21"/>
<polygon fill="grey" stroke="grey" stroke-width="2" points="78.27,-1270.28 81.39,-1260.16 72.64,-1266.13 78.27,-1270.28"/>
</g>
<!-- 39 -->
<g id="node40" class="node">
<title>39</title>
<path fill="none" stroke="#d8b456" stroke-width="2" d="M188,-1260C188,-1260 158,-1260 158,-1260 152,-1260 146,-1254 146,-1248 146,-1248 146,-1236 146,-1236 146,-1230 152,-1224 158,-1224 158,-1224 188,-1224 188,-1224 194,-1224 200,-1230 200,-1236 200,-1236 200,-1248 200,-1248 200,-1254 194,-1260 188,-1260"/>
<text text-anchor="middle" x="173" y="-1239.5" font-family="sans" font-size="10.00">delly</text>
</g>
<!-- 10&#45;&gt;39 -->
<g id="edge71" class="edge">
<title>10&#45;&gt;39</title>
<path fill="none" stroke="grey" stroke-width="2" d="M619.22,-1888.46C483.48,-1885.54 38,-1866.81 38,-1747 38,-1747 38,-1747 38,-1457 38,-1377.52 105.44,-1303.49 144.99,-1266.91"/>
<polygon fill="grey" stroke="grey" stroke-width="2" points="147.44,-1269.41 152.5,-1260.1 142.74,-1264.22 147.44,-1269.41"/>
</g>
<!-- 11&#45;&gt;9 -->
<g id="edge11" class="edge">
<title>11&#45;&gt;9</title>
<path fill="none" stroke="grey" stroke-width="2" d="M162.98,-1655.96C129.27,-1632.37 76,-1586.33 76,-1531 76,-1531 76,-1531 76,-1457 76,-1358.57 19,-1341.43 19,-1243 19,-1243 19,-1243 19,-881 19,-785.57 146.41,-754.25 233.2,-743.99"/>
<polygon fill="grey" stroke="grey" stroke-width="2" points="233.75,-747.45 243.3,-742.86 232.98,-740.49 233.75,-747.45"/>
</g>
<!-- 11&#45;&gt;18 -->
<g id="edge33" class="edge">
<title>11&#45;&gt;18</title>
<path fill="none" stroke="grey" stroke-width="2" d="M190,-1655.95C190,-1629.29 190,-1576.11 190,-1531 190,-1531 190,-1531 190,-1457 190,-1389.67 409.8,-1341.05 506.86,-1322.86"/>
<polygon fill="grey" stroke="grey" stroke-width="2" points="507.76,-1326.25 516.96,-1321 506.49,-1319.37 507.76,-1326.25"/>
</g>
<!-- 11&#45;&gt;25 -->
<g id="edge45" class="edge">
<title>11&#45;&gt;25</title>
<path fill="none" stroke="grey" stroke-width="2" d="M233.31,-1667.62C267.11,-1661.37 313.34,-1648.06 344,-1620 376.16,-1590.57 420.34,-1468.67 439.05,-1413.88"/>
<polygon fill="grey" stroke="grey" stroke-width="2" points="442.45,-1414.76 442.34,-1404.17 435.82,-1412.52 442.45,-1414.76"/>
</g>
<!-- 27 -->
<g id="node28" class="node">
<title>27</title>
<path fill="none" stroke="#56a9d8" stroke-width="2" d="M323.5,-1620C323.5,-1620 232.5,-1620 232.5,-1620 226.5,-1620 220.5,-1614 220.5,-1608 220.5,-1608 220.5,-1596 220.5,-1596 220.5,-1590 226.5,-1584 232.5,-1584 232.5,-1584 323.5,-1584 323.5,-1584 329.5,-1584 335.5,-1590 335.5,-1596 335.5,-1596 335.5,-1608 335.5,-1608 335.5,-1614 329.5,-1620 323.5,-1620"/>
<text text-anchor="middle" x="278" y="-1599.5" font-family="sans" font-size="10.00">get_known_variants</text>
</g>
<!-- 11&#45;&gt;27 -->
<g id="edge52" class="edge">
<title>11&#45;&gt;27</title>
<path fill="none" stroke="grey" stroke-width="2" d="M211.75,-1655.7C222.84,-1646.88 236.47,-1636.03 248.49,-1626.47"/>
<polygon fill="grey" stroke="grey" stroke-width="2" points="250.85,-1629.07 256.5,-1620.1 246.49,-1623.59 250.85,-1629.07"/>
</g>
<!-- 11&#45;&gt;37 -->
<g id="edge66" class="edge">
<title>11&#45;&gt;37</title>
<path fill="none" stroke="grey" stroke-width="2" d="M173.51,-1655.77C151.16,-1630.53 114,-1581.05 114,-1531 114,-1531 114,-1531 114,-1457 114,-1389.55 104.52,-1310.61 98.95,-1270.06"/>
<polygon fill="grey" stroke="grey" stroke-width="2" points="102.42,-1269.57 97.56,-1260.15 95.48,-1270.54 102.42,-1269.57"/>
</g>
<!-- 11&#45;&gt;39 -->
<g id="edge70" class="edge">
<title>11&#45;&gt;39</title>
<path fill="none" stroke="grey" stroke-width="2" d="M182.31,-1655.91C171.21,-1629.62 152,-1577.45 152,-1531 152,-1531 152,-1531 152,-1457 152,-1389.49 162.48,-1310.57 168.63,-1270.05"/>
<polygon fill="grey" stroke="grey" stroke-width="2" points="172.1,-1270.56 170.17,-1260.14 165.18,-1269.49 172.1,-1270.56"/>
</g>
<!-- 12 -->
<g id="node13" class="node">
<title>12</title>
<path fill="none" stroke="#56d8d0" stroke-width="2" d="M525,-828C525,-828 397,-828 397,-828 391,-828 385,-822 385,-816 385,-816 385,-804 385,-804 385,-798 391,-792 397,-792 397,-792 525,-792 525,-792 531,-792 537,-798 537,-804 537,-804 537,-816 537,-816 537,-822 531,-828 525,-828"/>
<text text-anchor="middle" x="461" y="-807.5" font-family="sans" font-size="10.00">scatter_merged_candidates</text>
</g>
<!-- 12&#45;&gt;9 -->
<g id="edge12" class="edge">
<title>12&#45;&gt;9</title>
<path fill="none" stroke="grey" stroke-width="2" d="M424.55,-791.88C404.36,-782.39 379.08,-770.51 357.59,-760.42"/>
<polygon fill="grey" stroke="grey" stroke-width="2" points="358.87,-757.15 348.33,-756.07 355.89,-763.49 358.87,-757.15"/>
</g>
<!-- 13 -->
<g id="node14" class="node">
<title>13</title>
<path fill="none" stroke="#56d873" stroke-width="2" d="M554,-900C554,-900 402,-900 402,-900 396,-900 390,-894 390,-888 390,-888 390,-876 390,-876 390,-870 396,-864 402,-864 402,-864 554,-864 554,-864 560,-864 566,-870 566,-876 566,-876 566,-888 566,-888 566,-894 560,-900 554,-900"/>
<text text-anchor="middle" x="478" y="-879.5" font-family="sans" font-size="10.00">norm_merged_candidate_callset</text>
</g>
<!-- 13&#45;&gt;12 -->
<g id="edge17" class="edge">
<title>13&#45;&gt;12</title>
<path fill="none" stroke="grey" stroke-width="2" d="M473.8,-863.7C471.9,-855.9 469.62,-846.51 467.52,-837.83"/>
<polygon fill="grey" stroke="grey" stroke-width="2" points="470.92,-837 465.15,-828.1 464.11,-838.65 470.92,-837"/>
</g>
<!-- 14 -->
<g id="node15" class="node">
<title>14</title>
<path fill="none" stroke="#59d856" stroke-width="2" d="M581,-972C581,-972 443,-972 443,-972 437,-972 431,-966 431,-960 431,-960 431,-948 431,-948 431,-942 437,-936 443,-936 443,-936 581,-936 581,-936 587,-936 593,-942 593,-948 593,-948 593,-960 593,-960 593,-966 587,-972 581,-972"/>
<text text-anchor="middle" x="512" y="-951.5" font-family="sans" font-size="10.00">concat_all_candidate_callsets</text>
</g>
<!-- 14&#45;&gt;13 -->
<g id="edge18" class="edge">
<title>14&#45;&gt;13</title>
<path fill="none" stroke="grey" stroke-width="2" d="M503.6,-935.7C499.73,-927.73 495.05,-918.1 490.76,-909.26"/>
<polygon fill="grey" stroke="grey" stroke-width="2" points="493.83,-907.57 486.31,-900.1 487.53,-910.63 493.83,-907.57"/>
</g>
<!-- 15 -->
<g id="node16" class="node">
<title>15</title>
<path fill="none" stroke="#88d856" stroke-width="2" d="M705.5,-1116C705.5,-1116 598.5,-1116 598.5,-1116 592.5,-1116 586.5,-1110 586.5,-1104 586.5,-1104 586.5,-1092 586.5,-1092 586.5,-1086 592.5,-1080 598.5,-1080 598.5,-1080 705.5,-1080 705.5,-1080 711.5,-1080 717.5,-1086 717.5,-1092 717.5,-1092 717.5,-1104 717.5,-1104 717.5,-1110 711.5,-1116 705.5,-1116"/>
<text text-anchor="middle" x="652" y="-1095.5" font-family="sans" font-size="10.00">gatk_bcftools_reheader</text>
</g>
<!-- 15&#45;&gt;14 -->
<g id="edge25" class="edge">
<title>15&#45;&gt;14</title>
<path fill="none" stroke="grey" stroke-width="2" d="M618.09,-1079.83C602.02,-1070.63 583.28,-1058.26 569,-1044 550.56,-1025.59 535.04,-1000.22 524.87,-981.27"/>
<polygon fill="grey" stroke="grey" stroke-width="2" points="527.92,-979.54 520.19,-972.29 521.71,-982.77 527.92,-979.54"/>
</g>
<!-- 41 -->
<g id="node42" class="node">
<title>41</title>
<path fill="none" stroke="#d8d356" stroke-width="2" d="M718,-1044C718,-1044 590,-1044 590,-1044 584,-1044 578,-1038 578,-1032 578,-1032 578,-1020 578,-1020 578,-1014 584,-1008 590,-1008 590,-1008 718,-1008 718,-1008 724,-1008 730,-1014 730,-1020 730,-1020 730,-1032 730,-1032 730,-1038 724,-1044 718,-1044"/>
<text text-anchor="middle" x="654" y="-1023.5" font-family="sans" font-size="10.00">index_gatk_haplotypecaller</text>
</g>
<!-- 15&#45;&gt;41 -->
<g id="edge73" class="edge">
<title>15&#45;&gt;41</title>
<path fill="none" stroke="grey" stroke-width="2" d="M652.49,-1079.7C652.71,-1071.98 652.98,-1062.71 653.23,-1054.11"/>
<polygon fill="grey" stroke="grey" stroke-width="2" points="656.72,-1054.2 653.51,-1044.1 649.73,-1054 656.72,-1054.2"/>
</g>
<!-- 16 -->
<g id="node17" class="node">
<title>16</title>
<path fill="none" stroke="#d8cb56" stroke-width="2" d="M687,-1188C687,-1188 617,-1188 617,-1188 611,-1188 605,-1182 605,-1176 605,-1176 605,-1164 605,-1164 605,-1158 611,-1152 617,-1152 617,-1152 687,-1152 687,-1152 693,-1152 699,-1158 699,-1164 699,-1164 699,-1176 699,-1176 699,-1182 693,-1188 687,-1188"/>
<text text-anchor="middle" x="652" y="-1167.5" font-family="sans" font-size="10.00">gatk_vcf_to_bcf</text>
</g>
<!-- 16&#45;&gt;15 -->
<g id="edge27" class="edge">
<title>16&#45;&gt;15</title>
<path fill="none" stroke="grey" stroke-width="2" d="M652,-1151.7C652,-1143.98 652,-1134.71 652,-1126.11"/>
<polygon fill="grey" stroke="grey" stroke-width="2" points="655.5,-1126.1 652,-1116.1 648.5,-1126.1 655.5,-1126.1"/>
</g>
<!-- 17&#45;&gt;16 -->
<g id="edge28" class="edge">
<title>17&#45;&gt;16</title>
<path fill="none" stroke="grey" stroke-width="2" d="M652,-1223.7C652,-1215.98 652,-1206.71 652,-1198.11"/>
<polygon fill="grey" stroke="grey" stroke-width="2" points="655.5,-1198.1 652,-1188.1 648.5,-1198.1 655.5,-1198.1"/>
</g>
<!-- 18&#45;&gt;17 -->
<g id="edge30" class="edge">
<title>18&#45;&gt;17</title>
<path fill="none" stroke="grey" stroke-width="2" d="M576.46,-1295.88C589.3,-1286.89 605.2,-1275.76 619.09,-1266.03"/>
<polygon fill="grey" stroke="grey" stroke-width="2" points="621.26,-1268.79 627.44,-1260.19 617.24,-1263.06 621.26,-1268.79"/>
</g>
<!-- 18&#45;&gt;35 -->
<g id="edge63" class="edge">
<title>18&#45;&gt;35</title>
<path fill="none" stroke="grey" stroke-width="2" d="M587.18,-1303.78C628.49,-1292.95 697.97,-1274.73 750.12,-1261.06"/>
<polygon fill="grey" stroke="grey" stroke-width="2" points="751.19,-1264.4 759.98,-1258.47 749.41,-1257.63 751.19,-1264.4"/>
</g>
<!-- 18&#45;&gt;37 -->
<g id="edge65" class="edge">
<title>18&#45;&gt;37</title>
<path fill="none" stroke="grey" stroke-width="2" d="M516.99,-1311.57C446.45,-1308.03 282.32,-1296.55 137.68,-1259.76"/>
<polygon fill="grey" stroke="grey" stroke-width="2" points="138.3,-1256.31 127.74,-1257.18 136.54,-1263.08 138.3,-1256.31"/>
</g>
<!-- 18&#45;&gt;39 -->
<g id="edge69" class="edge">
<title>18&#45;&gt;39</title>
<path fill="none" stroke="grey" stroke-width="2" d="M516.87,-1310.26C454.8,-1304.81 322.06,-1290.41 214,-1260 212.56,-1259.6 211.11,-1259.16 209.65,-1258.69"/>
<polygon fill="grey" stroke="grey" stroke-width="2" points="210.62,-1255.32 200.03,-1255.26 208.27,-1261.91 210.62,-1255.32"/>
</g>
<!-- 44 -->
<g id="node45" class="node">
<title>44</title>
<path fill="none" stroke="#566bd8" stroke-width="2" d="M303.5,-900C303.5,-900 170.5,-900 170.5,-900 164.5,-900 158.5,-894 158.5,-888 158.5,-888 158.5,-876 158.5,-876 158.5,-870 164.5,-864 170.5,-864 170.5,-864 303.5,-864 303.5,-864 309.5,-864 315.5,-870 315.5,-876 315.5,-876 315.5,-888 315.5,-888 315.5,-894 309.5,-900 303.5,-900"/>
<text text-anchor="middle" x="237" y="-879.5" font-family="sans" font-size="10.00">samtools_merge_final_bams</text>
</g>
<!-- 18&#45;&gt;44 -->
<g id="edge76" class="edge">
<title>18&#45;&gt;44</title>
<path fill="none" stroke="grey" stroke-width="2" d="M516.71,-1313.3C432.74,-1311.99 228,-1295.98 228,-1171 228,-1171 228,-1171 228,-1025 228,-984.92 231.62,-938.59 234.26,-910.05"/>
<polygon fill="grey" stroke="grey" stroke-width="2" points="237.75,-910.31 235.22,-900.03 230.79,-909.65 237.75,-910.31"/>
</g>
<!-- 19 -->
<g id="node20" class="node">
<title>19</title>
<path fill="none" stroke="#d85656" stroke-width="2" d="M747,-1548C747,-1548 673,-1548 673,-1548 667,-1548 661,-1542 661,-1536 661,-1536 661,-1524 661,-1524 661,-1518 667,-1512 673,-1512 673,-1512 747,-1512 747,-1512 753,-1512 759,-1518 759,-1524 759,-1524 759,-1536 759,-1536 759,-1542 753,-1548 747,-1548"/>
<text text-anchor="middle" x="710" y="-1527.5" font-family="sans" font-size="10.00">mark_duplicates</text>
</g>
<!-- 19&#45;&gt;18 -->
<g id="edge31" class="edge">
<title>19&#45;&gt;18</title>
<path fill="none" stroke="grey" stroke-width="2" d="M732.15,-1511.87C742.41,-1502.52 753.52,-1490 759,-1476 764.83,-1461.1 766.86,-1453.93 759,-1440 724.47,-1378.82 646.63,-1344.21 596.86,-1327.58"/>
<polygon fill="grey" stroke="grey" stroke-width="2" points="597.89,-1324.23 587.3,-1324.49 595.74,-1330.89 597.89,-1324.23"/>
</g>
<!-- 23 -->
<g id="node24" class="node">
<title>23</title>
<path fill="none" stroke="#5673d8" stroke-width="2" d="M738,-1476C738,-1476 622,-1476 622,-1476 616,-1476 610,-1470 610,-1464 610,-1464 610,-1452 610,-1452 610,-1446 616,-1440 622,-1440 622,-1440 738,-1440 738,-1440 744,-1440 750,-1446 750,-1452 750,-1452 750,-1464 750,-1464 750,-1470 744,-1476 738,-1476"/>
<text text-anchor="middle" x="680" y="-1455.5" font-family="sans" font-size="10.00">mark_duplicates_indexes</text>
</g>
<!-- 19&#45;&gt;23 -->
<g id="edge42" class="edge">
<title>19&#45;&gt;23</title>
<path fill="none" stroke="grey" stroke-width="2" d="M702.58,-1511.7C699.21,-1503.81 695.13,-1494.3 691.38,-1485.55"/>
<polygon fill="grey" stroke="grey" stroke-width="2" points="694.49,-1483.92 687.33,-1476.1 688.05,-1486.67 694.49,-1483.92"/>
</g>
<!-- 19&#45;&gt;25 -->
<g id="edge44" class="edge">
<title>19&#45;&gt;25</title>
<path fill="none" stroke="grey" stroke-width="2" d="M660.83,-1526.71C615.87,-1522.38 549.48,-1510.17 503,-1476 481.62,-1460.28 466.73,-1433.52 457.89,-1413.44"/>
<polygon fill="grey" stroke="grey" stroke-width="2" points="461.11,-1412.07 454.03,-1404.19 454.65,-1414.77 461.11,-1412.07"/>
</g>
<!-- 20 -->
<g id="node21" class="node">
<title>20</title>
<path fill="none" stroke="#56d8b9" stroke-width="2" d="M746,-1764C746,-1764 674,-1764 674,-1764 668,-1764 662,-1758 662,-1752 662,-1752 662,-1740 662,-1740 662,-1734 668,-1728 674,-1728 674,-1728 746,-1728 746,-1728 752,-1728 758,-1734 758,-1740 758,-1740 758,-1752 758,-1752 758,-1758 752,-1764 746,-1764"/>
<text text-anchor="middle" x="710" y="-1743.5" font-family="sans" font-size="10.00">map_reads_bwa</text>
</g>
<!-- 20&#45;&gt;19 -->
<g id="edge38" class="edge">
<title>20&#45;&gt;19</title>
<path fill="none" stroke="grey" stroke-width="2" d="M710,-1727.85C710,-1690.83 710,-1603.18 710,-1558.39"/>
<polygon fill="grey" stroke="grey" stroke-width="2" points="713.5,-1558.23 710,-1548.23 706.5,-1558.23 713.5,-1558.23"/>
</g>
<!-- 21 -->
<g id="node22" class="node">
<title>21</title>
<path fill="none" stroke="#56d85b" stroke-width="2" d="M775.5,-1836C775.5,-1836 722.5,-1836 722.5,-1836 716.5,-1836 710.5,-1830 710.5,-1824 710.5,-1824 710.5,-1812 710.5,-1812 710.5,-1806 716.5,-1800 722.5,-1800 722.5,-1800 775.5,-1800 775.5,-1800 781.5,-1800 787.5,-1806 787.5,-1812 787.5,-1812 787.5,-1824 787.5,-1824 787.5,-1830 781.5,-1836 775.5,-1836"/>
<text text-anchor="middle" x="749" y="-1815.5" font-family="sans" font-size="10.00">cutadapt_pe</text>
</g>
<!-- 21&#45;&gt;20 -->
<g id="edge39" class="edge">
<title>21&#45;&gt;20</title>
<path fill="none" stroke="grey" stroke-width="2" d="M739.36,-1799.7C734.87,-1791.64 729.44,-1781.89 724.48,-1772.98"/>
<polygon fill="grey" stroke="grey" stroke-width="2" points="727.45,-1771.14 719.53,-1764.1 721.34,-1774.54 727.45,-1771.14"/>
</g>
<!-- 31 -->
<g id="node32" class="node">
<title>31</title>
<path fill="none" stroke="#68d856" stroke-width="2" d="M1076,-1764C1076,-1764 976,-1764 976,-1764 970,-1764 964,-1758 964,-1752 964,-1752 964,-1740 964,-1740 964,-1734 970,-1728 976,-1728 976,-1728 1076,-1728 1076,-1728 1082,-1728 1088,-1734 1088,-1740 1088,-1740 1088,-1752 1088,-1752 1088,-1758 1082,-1764 1076,-1764"/>
<text text-anchor="middle" x="1026" y="-1743.5" font-family="sans" font-size="10.00">map_reads_novoalign</text>
</g>
<!-- 21&#45;&gt;31 -->
<g id="edge56" class="edge">
<title>21&#45;&gt;31</title>
<path fill="none" stroke="grey" stroke-width="2" d="M787.52,-1807.27C830.48,-1796.41 900.93,-1778.61 954.14,-1765.16"/>
<polygon fill="grey" stroke="grey" stroke-width="2" points="955.03,-1768.54 963.87,-1762.7 953.32,-1761.76 955.03,-1768.54"/>
</g>
<!-- 22&#45;&gt;20 -->
<g id="edge40" class="edge">
<title>22&#45;&gt;20</title>
<path fill="none" stroke="grey" stroke-width="2" d="M670.85,-1799.7C677.03,-1791.39 684.54,-1781.28 691.32,-1772.14"/>
<polygon fill="grey" stroke="grey" stroke-width="2" points="694.14,-1774.22 697.29,-1764.1 688.52,-1770.04 694.14,-1774.22"/>
</g>
<!-- 23&#45;&gt;18 -->
<g id="edge36" class="edge">
<title>23&#45;&gt;18</title>
<path fill="none" stroke="grey" stroke-width="2" d="M664.56,-1439.87C642.07,-1414.92 600.18,-1368.45 574.33,-1339.77"/>
<polygon fill="grey" stroke="grey" stroke-width="2" points="576.79,-1337.27 567.49,-1332.19 571.59,-1341.96 576.79,-1337.27"/>
</g>
<!-- 23&#45;&gt;25 -->
<g id="edge50" class="edge">
<title>23&#45;&gt;25</title>
<path fill="none" stroke="grey" stroke-width="2" d="M623.54,-1439.97C590.7,-1430.06 549.13,-1417.51 514.69,-1407.12"/>
<polygon fill="grey" stroke="grey" stroke-width="2" points="515.29,-1403.65 504.71,-1404.11 513.27,-1410.35 515.29,-1403.65"/>
</g>
<!-- 24&#45;&gt;18 -->
<g id="edge34" class="edge">
<title>24&#45;&gt;18</title>
<path fill="none" stroke="grey" stroke-width="2" d="M552,-1439.87C552,-1415.67 552,-1371.21 552,-1342.39"/>
<polygon fill="grey" stroke="grey" stroke-width="2" points="555.5,-1342.19 552,-1332.19 548.5,-1342.19 555.5,-1342.19"/>
</g>
<!-- 24&#45;&gt;25 -->
<g id="edge47" class="edge">
<title>24&#45;&gt;25</title>
<path fill="none" stroke="grey" stroke-width="2" d="M526.56,-1439.88C513.21,-1430.89 496.68,-1419.76 482.22,-1410.03"/>
<polygon fill="grey" stroke="grey" stroke-width="2" points="483.79,-1406.87 473.54,-1404.19 479.88,-1412.68 483.79,-1406.87"/>
</g>
<!-- 25&#45;&gt;18 -->
<g id="edge32" class="edge">
<title>25&#45;&gt;18</title>
<path fill="none" stroke="grey" stroke-width="2" d="M473.44,-1367.88C486.79,-1358.89 503.32,-1347.76 517.78,-1338.03"/>
<polygon fill="grey" stroke="grey" stroke-width="2" points="520.12,-1340.68 526.46,-1332.19 516.21,-1334.87 520.12,-1340.68"/>
</g>
<!-- 26 -->
<g id="node27" class="node">
<title>26</title>
<path fill="none" stroke="#56d892" stroke-width="2" d="M327.5,-1548C327.5,-1548 232.5,-1548 232.5,-1548 226.5,-1548 220.5,-1542 220.5,-1536 220.5,-1536 220.5,-1524 220.5,-1524 220.5,-1518 226.5,-1512 232.5,-1512 232.5,-1512 327.5,-1512 327.5,-1512 333.5,-1512 339.5,-1518 339.5,-1524 339.5,-1524 339.5,-1536 339.5,-1536 339.5,-1542 333.5,-1548 327.5,-1548"/>
<text text-anchor="middle" x="280" y="-1527.5" font-family="sans" font-size="10.00">remove_iupac_codes</text>
</g>
<!-- 26&#45;&gt;25 -->
<g id="edge46" class="edge">
<title>26&#45;&gt;25</title>
<path fill="none" stroke="grey" stroke-width="2" d="M304.13,-1511.92C318.09,-1501.81 335.84,-1488.56 351,-1476 376.21,-1455.11 403.59,-1429.73 422.8,-1411.43"/>
<polygon fill="grey" stroke="grey" stroke-width="2" points="425.45,-1413.74 430.25,-1404.29 420.61,-1408.68 425.45,-1413.74"/>
</g>
<!-- 28 -->
<g id="node29" class="node">
<title>28</title>
<path fill="none" stroke="#d8a456" stroke-width="2" d="M330,-1476C330,-1476 230,-1476 230,-1476 224,-1476 218,-1470 218,-1464 218,-1464 218,-1452 218,-1452 218,-1446 224,-1440 230,-1440 230,-1440 330,-1440 330,-1440 336,-1440 342,-1446 342,-1452 342,-1452 342,-1464 342,-1464 342,-1470 336,-1476 330,-1476"/>
<text text-anchor="middle" x="280" y="-1455.5" font-family="sans" font-size="10.00">tabix_known_variants</text>
</g>
<!-- 26&#45;&gt;28 -->
<g id="edge53" class="edge">
<title>26&#45;&gt;28</title>
<path fill="none" stroke="grey" stroke-width="2" d="M280,-1511.7C280,-1503.98 280,-1494.71 280,-1486.11"/>
<polygon fill="grey" stroke="grey" stroke-width="2" points="283.5,-1486.1 280,-1476.1 276.5,-1486.1 283.5,-1486.1"/>
</g>
<!-- 27&#45;&gt;26 -->
<g id="edge51" class="edge">
<title>27&#45;&gt;26</title>
<path fill="none" stroke="grey" stroke-width="2" d="M278.49,-1583.7C278.71,-1575.98 278.98,-1566.71 279.23,-1558.11"/>
<polygon fill="grey" stroke="grey" stroke-width="2" points="282.72,-1558.2 279.51,-1548.1 275.73,-1558 282.72,-1558.2"/>
</g>
<!-- 28&#45;&gt;25 -->
<g id="edge48" class="edge">
<title>28&#45;&gt;25</title>
<path fill="none" stroke="grey" stroke-width="2" d="M321.1,-1439.88C344.17,-1430.26 373.14,-1418.19 397.57,-1408.01"/>
<polygon fill="grey" stroke="grey" stroke-width="2" points="399.15,-1411.15 407.04,-1404.07 396.46,-1404.68 399.15,-1411.15"/>
</g>
<!-- 29 -->
<g id="node30" class="node">
<title>29</title>
<path fill="none" stroke="#d87d56" stroke-width="2" d="M1099.5,-1620C1099.5,-1620 970.5,-1620 970.5,-1620 964.5,-1620 958.5,-1614 958.5,-1608 958.5,-1608 958.5,-1596 958.5,-1596 958.5,-1590 964.5,-1584 970.5,-1584 970.5,-1584 1099.5,-1584 1099.5,-1584 1105.5,-1584 1111.5,-1590 1111.5,-1596 1111.5,-1596 1111.5,-1608 1111.5,-1608 1111.5,-1614 1105.5,-1620 1099.5,-1620"/>
<text text-anchor="middle" x="1035" y="-1599.5" font-family="sans" font-size="10.00">novoalign_add_read_groups</text>
</g>
<!-- 29&#45;&gt;19 -->
<g id="edge37" class="edge">
<title>29&#45;&gt;19</title>
<path fill="none" stroke="grey" stroke-width="2" d="M958.39,-1584.5C900.56,-1572.04 822.37,-1555.2 769.27,-1543.77"/>
<polygon fill="grey" stroke="grey" stroke-width="2" points="769.85,-1540.31 759.33,-1541.63 768.37,-1547.15 769.85,-1540.31"/>
</g>
<!-- 30 -->
<g id="node31" class="node">
<title>30</title>
<path fill="none" stroke="#c6d856" stroke-width="2" d="M1091,-1692C1091,-1692 973,-1692 973,-1692 967,-1692 961,-1686 961,-1680 961,-1680 961,-1668 961,-1668 961,-1662 967,-1656 973,-1656 973,-1656 1091,-1656 1091,-1656 1097,-1656 1103,-1662 1103,-1668 1103,-1668 1103,-1680 1103,-1680 1103,-1686 1097,-1692 1091,-1692"/>
<text text-anchor="middle" x="1032" y="-1671.5" font-family="sans" font-size="10.00">novoalign_sam_sort_bam</text>
</g>
<!-- 30&#45;&gt;29 -->
<g id="edge54" class="edge">
<title>30&#45;&gt;29</title>
<path fill="none" stroke="grey" stroke-width="2" d="M1032.74,-1655.7C1033.07,-1647.98 1033.47,-1638.71 1033.84,-1630.11"/>
<polygon fill="grey" stroke="grey" stroke-width="2" points="1037.34,-1630.25 1034.27,-1620.1 1030.34,-1629.95 1037.34,-1630.25"/>
</g>
<!-- 31&#45;&gt;30 -->
<g id="edge55" class="edge">
<title>31&#45;&gt;30</title>
<path fill="none" stroke="grey" stroke-width="2" d="M1027.48,-1727.7C1028.14,-1719.98 1028.94,-1710.71 1029.68,-1702.11"/>
<polygon fill="grey" stroke="grey" stroke-width="2" points="1033.17,-1702.37 1030.53,-1692.1 1026.19,-1701.77 1033.17,-1702.37"/>
</g>
<!-- 32 -->
<g id="node33" class="node">
<title>32</title>
<path fill="none" stroke="#a7d856" stroke-width="2" d="M1106.5,-1908C1106.5,-1908 983.5,-1908 983.5,-1908 977.5,-1908 971.5,-1902 971.5,-1896 971.5,-1896 971.5,-1884 971.5,-1884 971.5,-1878 977.5,-1872 983.5,-1872 983.5,-1872 1106.5,-1872 1106.5,-1872 1112.5,-1872 1118.5,-1878 1118.5,-1884 1118.5,-1884 1118.5,-1896 1118.5,-1896 1118.5,-1902 1112.5,-1908 1106.5,-1908"/>
<text text-anchor="middle" x="1045" y="-1887.5" font-family="sans" font-size="10.00">register_novoalign_license</text>
</g>
<!-- 32&#45;&gt;31 -->
<g id="edge58" class="edge">
<title>32&#45;&gt;31</title>
<path fill="none" stroke="grey" stroke-width="2" d="M1054.35,-1871.67C1062.87,-1853.54 1073,-1824.38 1065,-1800 1061.69,-1789.91 1055.63,-1780.15 1049.27,-1771.82"/>
<polygon fill="grey" stroke="grey" stroke-width="2" points="1051.92,-1769.54 1042.89,-1764.01 1046.5,-1773.97 1051.92,-1769.54"/>
</g>
<!-- 32&#45;&gt;33 -->
<g id="edge60" class="edge">
<title>32&#45;&gt;33</title>
<path fill="none" stroke="grey" stroke-width="2" d="M1035.61,-1871.7C1031.24,-1863.64 1025.94,-1853.89 1021.1,-1844.98"/>
<polygon fill="grey" stroke="grey" stroke-width="2" points="1024.13,-1843.22 1016.29,-1836.1 1017.98,-1846.56 1024.13,-1843.22"/>
</g>
<!-- 33&#45;&gt;31 -->
<g id="edge57" class="edge">
<title>33&#45;&gt;31</title>
<path fill="none" stroke="grey" stroke-width="2" d="M1011.7,-1799.7C1013.81,-1791.9 1016.36,-1782.51 1018.72,-1773.83"/>
<polygon fill="grey" stroke="grey" stroke-width="2" points="1022.12,-1774.67 1021.36,-1764.1 1015.36,-1772.84 1022.12,-1774.67"/>
</g>
<!-- 34 -->
<g id="node35" class="node">
<title>34</title>
<path fill="none" stroke="#56a2d8" stroke-width="2" d="M890.5,-1116C890.5,-1116 747.5,-1116 747.5,-1116 741.5,-1116 735.5,-1110 735.5,-1104 735.5,-1104 735.5,-1092 735.5,-1092 735.5,-1086 741.5,-1080 747.5,-1080 747.5,-1080 890.5,-1080 890.5,-1080 896.5,-1080 902.5,-1086 902.5,-1092 902.5,-1092 902.5,-1104 902.5,-1104 902.5,-1110 896.5,-1116 890.5,-1116"/>
<text text-anchor="middle" x="819" y="-1095.5" font-family="sans" font-size="10.00">deepvariant_bcftools_reheader</text>
</g>
<!-- 34&#45;&gt;14 -->
<g id="edge22" class="edge">
<title>34&#45;&gt;14</title>
<path fill="none" stroke="grey" stroke-width="2" d="M805.68,-1079.87C787.38,-1056.76 754.92,-1017.41 739,-1008 697.96,-983.73 646.61,-970.57 603.14,-963.44"/>
<polygon fill="grey" stroke="grey" stroke-width="2" points="603.55,-959.96 593.13,-961.88 602.47,-966.88 603.55,-959.96"/>
</g>
<!-- 40 -->
<g id="node41" class="node">
<title>40</title>
<path fill="none" stroke="#9fd856" stroke-width="2" d="M887.5,-1044C887.5,-1044 798.5,-1044 798.5,-1044 792.5,-1044 786.5,-1038 786.5,-1032 786.5,-1032 786.5,-1020 786.5,-1020 786.5,-1014 792.5,-1008 798.5,-1008 798.5,-1008 887.5,-1008 887.5,-1008 893.5,-1008 899.5,-1014 899.5,-1020 899.5,-1020 899.5,-1032 899.5,-1032 899.5,-1038 893.5,-1044 887.5,-1044"/>
<text text-anchor="middle" x="843" y="-1023.5" font-family="sans" font-size="10.00">index_deep_variant</text>
</g>
<!-- 34&#45;&gt;40 -->
<g id="edge72" class="edge">
<title>34&#45;&gt;40</title>
<path fill="none" stroke="grey" stroke-width="2" d="M824.93,-1079.7C827.61,-1071.9 830.83,-1062.51 833.8,-1053.83"/>
<polygon fill="grey" stroke="grey" stroke-width="2" points="837.2,-1054.7 837.14,-1044.1 830.58,-1052.43 837.2,-1054.7"/>
</g>
<!-- 35&#45;&gt;34 -->
<g id="edge61" class="edge">
<title>35&#45;&gt;34</title>
<path fill="none" stroke="grey" stroke-width="2" d="M819,-1223.87C819,-1199.67 819,-1155.21 819,-1126.39"/>
<polygon fill="grey" stroke="grey" stroke-width="2" points="822.5,-1126.19 819,-1116.19 815.5,-1126.19 822.5,-1126.19"/>
</g>
<!-- 36 -->
<g id="node37" class="node">
<title>36</title>
<path fill="none" stroke="#5663d8" stroke-width="2" d="M402,-1116C402,-1116 268,-1116 268,-1116 262,-1116 256,-1110 256,-1104 256,-1104 256,-1092 256,-1092 256,-1086 262,-1080 268,-1080 268,-1080 402,-1080 402,-1080 408,-1080 414,-1086 414,-1092 414,-1092 414,-1104 414,-1104 414,-1110 408,-1116 402,-1116"/>
<text text-anchor="middle" x="335" y="-1095.5" font-family="sans" font-size="10.00">freebayes_bcftools_reheader</text>
</g>
<!-- 36&#45;&gt;14 -->
<g id="edge26" class="edge">
<title>36&#45;&gt;14</title>
<path fill="none" stroke="grey" stroke-width="2" d="M313.65,-1079.94C292.85,-1061.26 266.82,-1030.91 285,-1008 302.14,-986.4 365.35,-972.78 420.73,-964.76"/>
<polygon fill="grey" stroke="grey" stroke-width="2" points="421.55,-968.18 430.97,-963.33 420.58,-961.25 421.55,-968.18"/>
</g>
<!-- 42 -->
<g id="node43" class="node">
<title>42</title>
<path fill="none" stroke="#56d8c9" stroke-width="2" d="M380,-1044C380,-1044 306,-1044 306,-1044 300,-1044 294,-1038 294,-1032 294,-1032 294,-1020 294,-1020 294,-1014 300,-1008 306,-1008 306,-1008 380,-1008 380,-1008 386,-1008 392,-1014 392,-1020 392,-1020 392,-1032 392,-1032 392,-1038 386,-1044 380,-1044"/>
<text text-anchor="middle" x="343" y="-1023.5" font-family="sans" font-size="10.00">index_freebayes</text>
</g>
<!-- 36&#45;&gt;42 -->
<g id="edge74" class="edge">
<title>36&#45;&gt;42</title>
<path fill="none" stroke="grey" stroke-width="2" d="M336.98,-1079.7C337.86,-1071.98 338.92,-1062.71 339.9,-1054.11"/>
<polygon fill="grey" stroke="grey" stroke-width="2" points="343.39,-1054.44 341.05,-1044.1 336.43,-1053.64 343.39,-1054.44"/>
</g>
<!-- 37&#45;&gt;36 -->
<g id="edge64" class="edge">
<title>37&#45;&gt;36</title>
<path fill="none" stroke="grey" stroke-width="2" d="M123.95,-1223.87C167.29,-1198.23 249.05,-1149.85 297.1,-1121.43"/>
<polygon fill="grey" stroke="grey" stroke-width="2" points="299.12,-1124.29 305.95,-1116.19 295.56,-1118.27 299.12,-1124.29"/>
</g>
<!-- 38 -->
<g id="node39" class="node">
<title>38</title>
<path fill="none" stroke="#56d863" stroke-width="2" d="M553.5,-1116C553.5,-1116 444.5,-1116 444.5,-1116 438.5,-1116 432.5,-1110 432.5,-1104 432.5,-1104 432.5,-1092 432.5,-1092 432.5,-1086 438.5,-1080 444.5,-1080 444.5,-1080 553.5,-1080 553.5,-1080 559.5,-1080 565.5,-1086 565.5,-1092 565.5,-1092 565.5,-1104 565.5,-1104 565.5,-1110 559.5,-1116 553.5,-1116"/>
<text text-anchor="middle" x="499" y="-1095.5" font-family="sans" font-size="10.00">delly_bcftools_reheader</text>
</g>
<!-- 38&#45;&gt;14 -->
<g id="edge20" class="edge">
<title>38&#45;&gt;14</title>
<path fill="none" stroke="grey" stroke-width="2" d="M500.57,-1079.87C502.78,-1055.67 506.85,-1011.21 509.49,-982.39"/>
<polygon fill="grey" stroke="grey" stroke-width="2" points="513,-982.47 510.43,-972.19 506.03,-981.83 513,-982.47"/>
</g>
<!-- 43 -->
<g id="node44" class="node">
<title>43</title>
<path fill="none" stroke="#5692d8" stroke-width="2" d="M471.5,-1044C471.5,-1044 422.5,-1044 422.5,-1044 416.5,-1044 410.5,-1038 410.5,-1032 410.5,-1032 410.5,-1020 410.5,-1020 410.5,-1014 416.5,-1008 422.5,-1008 422.5,-1008 471.5,-1008 471.5,-1008 477.5,-1008 483.5,-1014 483.5,-1020 483.5,-1020 483.5,-1032 483.5,-1032 483.5,-1038 477.5,-1044 471.5,-1044"/>
<text text-anchor="middle" x="447" y="-1023.5" font-family="sans" font-size="10.00">index_delly</text>
</g>
<!-- 38&#45;&gt;43 -->
<g id="edge75" class="edge">
<title>38&#45;&gt;43</title>
<path fill="none" stroke="grey" stroke-width="2" d="M486.15,-1079.7C479.97,-1071.39 472.46,-1061.28 465.68,-1052.14"/>
<polygon fill="grey" stroke="grey" stroke-width="2" points="468.48,-1050.04 459.71,-1044.1 462.86,-1054.22 468.48,-1050.04"/>
</g>
<!-- 39&#45;&gt;38 -->
<g id="edge68" class="edge">
<title>39&#45;&gt;38</title>
<path fill="none" stroke="grey" stroke-width="2" d="M200.23,-1229.14C255.41,-1205.1 381.03,-1150.39 450.52,-1120.12"/>
<polygon fill="grey" stroke="grey" stroke-width="2" points="452.17,-1123.22 459.94,-1116.01 449.37,-1116.8 452.17,-1123.22"/>
</g>
<!-- 40&#45;&gt;14 -->
<g id="edge23" class="edge">
<title>40&#45;&gt;14</title>
<path fill="none" stroke="grey" stroke-width="2" d="M786.46,-1011.28C781.57,-1010.15 776.7,-1009.04 772,-1008 716.03,-995.6 653.03,-982.73 603.06,-972.78"/>
<polygon fill="grey" stroke="grey" stroke-width="2" points="603.74,-969.34 593.25,-970.83 602.38,-976.21 603.74,-969.34"/>
</g>
<!-- 41&#45;&gt;14 -->
<g id="edge19" class="edge">
<title>41&#45;&gt;14</title>
<path fill="none" stroke="grey" stroke-width="2" d="M619.26,-1007.88C600.18,-998.47 576.32,-986.71 555.95,-976.67"/>
<polygon fill="grey" stroke="grey" stroke-width="2" points="557.39,-973.47 546.87,-972.19 554.29,-979.75 557.39,-973.47"/>
</g>
<!-- 42&#45;&gt;14 -->
<g id="edge24" class="edge">
<title>42&#45;&gt;14</title>
<path fill="none" stroke="grey" stroke-width="2" d="M384.34,-1007.88C407.55,-998.26 436.69,-986.19 461.27,-976.01"/>
<polygon fill="grey" stroke="grey" stroke-width="2" points="462.89,-979.13 470.79,-972.07 460.21,-972.66 462.89,-979.13"/>
</g>
<!-- 43&#45;&gt;14 -->
<g id="edge21" class="edge">
<title>43&#45;&gt;14</title>
<path fill="none" stroke="grey" stroke-width="2" d="M463.07,-1007.7C470.94,-999.22 480.56,-988.86 489.17,-979.58"/>
<polygon fill="grey" stroke="grey" stroke-width="2" points="491.88,-981.81 496.12,-972.1 486.75,-977.05 491.88,-981.81"/>
</g>
<!-- 44&#45;&gt;9 -->
<g id="edge15" class="edge">
<title>44&#45;&gt;9</title>
<path fill="none" stroke="grey" stroke-width="2" d="M237.66,-863.87C239.03,-845.13 243.24,-814.73 256,-792 262.14,-781.06 271.3,-771.02 280.43,-762.7"/>
<polygon fill="grey" stroke="grey" stroke-width="2" points="282.76,-765.31 288.04,-756.12 278.18,-760.02 282.76,-765.31"/>
</g>
<!-- 45 -->
<g id="node46" class="node">
<title>45</title>
<path fill="none" stroke="#d86e56" stroke-width="2" d="M347,-828C347,-828 277,-828 277,-828 271,-828 265,-822 265,-816 265,-816 265,-804 265,-804 265,-798 271,-792 277,-792 277,-792 347,-792 347,-792 353,-792 359,-798 359,-804 359,-804 359,-816 359,-816 359,-822 353,-828 347,-828"/>
<text text-anchor="middle" x="312" y="-807.5" font-family="sans" font-size="10.00">samtools_index</text>
</g>
<!-- 44&#45;&gt;45 -->
<g id="edge77" class="edge">
<title>44&#45;&gt;45</title>
<path fill="none" stroke="grey" stroke-width="2" d="M255.54,-863.7C264.8,-855.05 276.16,-844.45 286.26,-835.03"/>
<polygon fill="grey" stroke="grey" stroke-width="2" points="288.75,-837.49 293.67,-828.1 283.98,-832.37 288.75,-837.49"/>
</g>
<!-- 45&#45;&gt;9 -->
<g id="edge13" class="edge">
<title>45&#45;&gt;9</title>
<path fill="none" stroke="grey" stroke-width="2" d="M312,-791.7C312,-783.98 312,-774.71 312,-766.11"/>
<polygon fill="grey" stroke="grey" stroke-width="2" points="315.5,-766.1 312,-756.1 308.5,-766.1 315.5,-766.1"/>
</g>
<!-- 46&#45;&gt;3 -->
<g id="edge5" class="edge">
<title>46&#45;&gt;3</title>
<path fill="none" stroke="grey" stroke-width="2" d="M349.64,-287.7C343.77,-279.47 336.63,-269.48 330.16,-260.42"/>
<polygon fill="grey" stroke="grey" stroke-width="2" points="332.88,-258.21 324.22,-252.1 327.18,-262.28 332.88,-258.21"/>
</g>
</g>
</svg>
